<svg width="161" height="94" fill="none" xmlns="http://www.w3.org/2000/svg"><path d="M93.105 19.108H97.5a17.24 17.24 0 01-4.395 11.184V19.108zm-12.38 12.447h11.123a17.046 17.046 0 01-11.122 4.422v-4.422zm-.718 0v4.422a17.047 17.047 0 01-11.12-4.422h11.12zM67.63 19.108v11.184a17.151 17.151 0 01-4.403-11.184h4.403zm0-.72h-4.403A17.14 17.14 0 0167.63 7.204v11.184zm12.377-12.45h-11.12a17.032 17.032 0 0111.12-4.42v4.42zm.719 0v-4.42a17.03 17.03 0 0111.121 4.42h-11.12zm12.379 1.266A17.231 17.231 0 0197.5 18.388h-4.395V7.204zM81.232 18.388L92.389 7.17v11.218H81.231zm-.001.72h11.157v11.218L81.23 19.108zm-.505.512l11.153 11.213H80.726V19.62zm-.719-.001v11.214H68.856L80.007 19.62zm-.507-.51L68.348 30.323V19.108H79.5zm-.002-.72h-11.15V7.172l11.15 11.215zM80.726 6.66H91.88L80.726 17.879V6.66zm-.719 11.22L68.852 6.66h11.155v11.22zM92.998 6.046c-6.963-7.005-18.3-7.005-25.262 0a17.9 17.9 0 00-5.233 12.699 17.91 17.91 0 005.233 12.704 17.76 17.76 0 0012.631 5.253c4.575 0 9.15-1.754 12.631-5.253 6.965-7.003 6.965-18.4 0-25.403z" fill="#A7A9AC"/><path d="M92.752 32.344c-.263 0-.565-.1-.874-.41L69.136 9.066l-.001 22.058v.02l-.002.05c-.035.838-.692 1.144-1.137 1.144-.63 0-1.14-.512-1.14-1.144V6.302c0-.625.5-1.132 1.117-1.146.306-.005.605.113.829.336.205.205 17.015 17.111 22.813 22.938V6.784a16.199 16.199 0 00-11.239-4.492c-.63 0-1.14-.512-1.14-1.147 0-.63.51-1.145 1.14-1.145C85.36 0 90.04 1.951 93.56 5.492c.213.215.334.507.334.81v24.893c0 .463-.277.88-.702 1.056a1.094 1.094 0 01-.44.093zm28.432 56.207l-1.883 2.313v2.29c0 .212-.17.384-.379.384a.382.382 0 01-.381-.383v-2.291l-1.889-2.32a.385.385 0 01.054-.539c.16-.132.4-.108.533.055l1.683 2.066 1.683-2.067a.38.38 0 11.579.492zm-42.407 1.797h3.192V89.1a2.385 2.385 0 00-3.192 0v1.247zm-.381 3.19a.38.38 0 01-.38-.38v-2.346a.338.338 0 010-.168V88.94a.38.38 0 01.11-.269 3.134 3.134 0 012.245-.942c.85 0 1.649.335 2.246.942.07.071.112.167.112.27v1.787a.38.38 0 01-.38.382h-3.572v2.048c0 .21-.17.38-.381.38zM53.06 92.353c.441.396 1.002.61 1.598.61a2.37 2.37 0 001.596-.61V89.1a2.385 2.385 0 00-3.194 0v3.252zm1.598 1.373a3.12 3.12 0 01-2.245-.94.375.375 0 01-.11-.267v-3.58c0-.102.038-.198.11-.269a3.125 3.125 0 012.245-.942c.85 0 1.645.335 2.243.942a.373.373 0 01.112.27v3.579a.37.37 0 01-.112.266 3.12 3.12 0 01-2.243.941zm10.875-.188a.38.38 0 01-.378-.38v-4.86a.378.378 0 01.674-.239l1.672 2.067 1.69-2.069a.383.383 0 01.423-.116c.15.056.25.197.25.357v4.86a.38.38 0 01-.378.38.38.38 0 01-.379-.38v-3.793l-1.313 1.606a.384.384 0 01-.294.138.384.384 0 01-.295-.14l-1.292-1.598v3.786c0 .21-.172.38-.38.38zm42.81-.142c-.003 0-.006.002-.006.003-.015.017-.031.036-.052.053l-.052.034-.004.003c-.018.01-.035.02-.052.025-.003.002-.008.002-.01.004a.475.475 0 01-.054.014h-.01a.266.266 0 01-.055.006h-.003l-.039-.001c-.005 0-.006-.003-.008-.003a.49.49 0 00-.034-.003c-.005 0-.006-.004-.011-.004a.134.134 0 00-.026-.008c-.005 0-.008-.003-.013-.005-.006-.005-.017-.006-.023-.01a.038.038 0 00-.016-.006c-.004-.003-.012-.009-.021-.012-.003-.002-.008-.004-.012-.01a.05.05 0 01-.019-.012.03.03 0 01-.014-.01c-.008-.005-.013-.01-.019-.016-.003-.003-.006-.007-.011-.01a.151.151 0 01-.028-.029h-.001l-3.278-4.031v3.79a.38.38 0 11-.758 0v-4.86l.003-.036a.18.18 0 01.014-.07v-.003a.345.345 0 01.026-.064c0-.001 0-.003.002-.004a.251.251 0 01.039-.058c.003 0 .003-.004.004-.004a.217.217 0 01.051-.054h.001a.538.538 0 01.06-.042c.001 0 .005 0 .006-.002a.255.255 0 01.066-.025l.004-.001a.215.215 0 01.067-.013c0-.003.003 0 .004-.003l.033-.002a.38.38 0 01.107.018h.003a.249.249 0 01.063.026c.001.002.003.002.005.003.02.01.039.023.056.039l.007.002c.016.016.036.033.052.055l3.279 4.027v-3.789a.378.378 0 11.758 0v4.86c0 .01 0 .022-.002.037a.331.331 0 01-.013.07v.004l-.027.063-.002.005c-.013.02-.022.037-.037.059zm-66.537.33a3.12 3.12 0 01-2.246-.94.389.389 0 01-.11-.268V88.94a.39.39 0 01.11-.27 3.131 3.131 0 012.246-.942c.85 0 1.646.336 2.246.941a.39.39 0 01-.002.541.38.38 0 01-.536-.002 2.385 2.385 0 00-1.708-.718c-.596 0-1.158.218-1.598.612v3.252c.44.396 1.002.61 1.598.61a2.39 2.39 0 001.708-.712.374.374 0 01.536-.005.388.388 0 01.002.54 3.13 3.13 0 01-2.246.94zm49.82-3.001v-1.628a2.39 2.39 0 013.19 0v1.628h-3.19zm1.592-2.997a3.15 3.15 0 00-2.24.933.395.395 0 00-.111.27v4.224c0 .209.17.382.38.382a.382.382 0 00.379-.382v-1.669h3.19v1.669a.38.38 0 00.377.382.38.38 0 00.378-.382V88.93a.4.4 0 00-.107-.27 3.163 3.163 0 00-2.246-.933zm-26.21-41.085a.383.383 0 000 .537c.148.15.39.15.537 0a2.396 2.396 0 011.328-.678v4.636a.378.378 0 10.755 0v-4.636c.49.077.957.302 1.33.678a.368.368 0 00.267.111.36.36 0 00.267-.11.378.378 0 000-.538 3.16 3.16 0 00-4.484 0zm15.225-.744a.38.38 0 00-.378.381v2.047h-3.188V46.28a.379.379 0 10-.76 0v4.858a.38.38 0 10.76 0v-2.049h3.188v2.049a.378.378 0 10.758 0V46.28a.38.38 0 00-.38-.381zm11.482 4.33a.384.384 0 01.001.539 3.138 3.138 0 01-2.245.939c-.85 0-1.648-.336-2.247-.94a.398.398 0 01-.108-.268v-1.707a.346.346 0 010-.167v-1.708a.39.39 0 01.108-.267 3.14 3.14 0 012.247-.941c.85 0 1.648.334 2.245.94a.387.387 0 01-.001.54.378.378 0 01-.535-.001 2.38 2.38 0 00-1.709-.715 2.37 2.37 0 00-1.595.61v1.244h2.812a.38.38 0 010 .762h-2.812v1.246a2.39 2.39 0 003.304-.105.374.374 0 01.535 0zm66.677 27.584a1.147 1.147 0 000-1.618l-5.604-5.639 5.399-5.43a1.152 1.152 0 00.002-1.62 9.405 9.405 0 00-6.715-2.798h-.013a9.399 9.399 0 00-6.734 2.816c-.223.224-.34.528-.332.84V77.02c0 .63.509 1.129 1.139 1.129.631 0 1.141-.512 1.141-1.145V64.822A7.133 7.133 0 01153.469 63c1.549 0 3.02.483 4.242 1.379l-5.34 5.37a1.146 1.146 0 000 1.618l6.412 6.446a1.132 1.132 0 001.61 0zM34.518 69.712v-4.9a7.17 7.17 0 00-4.792-1.82 7.169 7.169 0 00-4.793 1.82v4.9h9.585zm1.94-6.203c.212.215.332.506.332.808V77.01c0 .63-.51 1.143-1.136 1.143a1.14 1.14 0 01-1.136-1.143V72h-9.585v5.01c0 .63-.51 1.143-1.135 1.143a1.14 1.14 0 01-1.138-1.143V64.317c0-.302.12-.593.334-.808a9.43 9.43 0 016.732-2.803c2.542 0 4.932.995 6.731 2.803zm25.263-2.226c-.63 0-1.138.51-1.138 1.14V77.01c0 .63.508 1.143 1.138 1.143a1.14 1.14 0 001.136-1.143V62.424c0-.631-.508-1.141-1.136-1.141zm19.946 3.84a1.135 1.135 0 001.606 0 1.147 1.147 0 000-1.617c-3.71-3.731-9.75-3.731-13.463 0a1.142 1.142 0 00-.334.808v10.798c0 .303.12.593.334.808a9.465 9.465 0 006.731 2.801 9.462 9.462 0 006.732-2.8 1.18 1.18 0 00.335-.824v-5.336a1.14 1.14 0 00-1.14-1.144H76.54a1.14 1.14 0 00-1.136 1.144c0 .629.51 1.14 1.136 1.14h4.794v3.718a7.234 7.234 0 01-9.585-.001v-9.809a7.227 7.227 0 019.918.314zm26.394-1.617a1.15 1.15 0 000 1.619 1.14 1.14 0 001.608 0 7.188 7.188 0 013.991-2.043v13.927c0 .63.51 1.143 1.139 1.143a1.14 1.14 0 001.134-1.143V63.083a7.17 7.17 0 013.989 2.042 1.136 1.136 0 001.606 0 1.15 1.15 0 00.002-1.62c-3.712-3.735-9.755-3.735-13.469 0zm29.858 1.305a7.17 7.17 0 00-4.792-1.82 7.167 7.167 0 00-4.792 1.82v9.807a7.17 7.17 0 004.792 1.818 7.17 7.17 0 004.792-1.818v-9.806zm1.939-1.302c.216.215.332.506.332.808v10.774c.001.305-.115.61-.332.828a9.432 9.432 0 01-6.731 2.803 9.43 9.43 0 01-6.732-2.804 1.149 1.149 0 01-.333-.807V64.317c0-.302.12-.593.333-.808a9.429 9.429 0 016.732-2.803c2.543 0 4.934.995 6.731 2.803zm-38.593 6.203v-4.9a7.179 7.179 0 00-4.794-1.82 7.16 7.16 0 00-4.79 1.82v4.9h9.584zm1.937-6.203c.217.215.333.506.333.808V77.01a1.14 1.14 0 01-1.137 1.143 1.14 1.14 0 01-1.133-1.143V72H91.68v5.01c0 .63-.51 1.143-1.137 1.143a1.14 1.14 0 01-1.136-1.143V64.317c0-.302.12-.593.332-.808a9.429 9.429 0 016.732-2.803c2.545 0 4.935.995 6.731 2.803zM53.234 78.077a1.15 1.15 0 00.73-1.07v-14.58c0-.632-.508-1.147-1.139-1.147-.63 0-1.14.515-1.14 1.146V74.03l-9.912-12.37a1.136 1.136 0 00-1.608-.08 1.148 1.148 0 00-.082 1.616l11.897 14.58a1.136 1.136 0 001.254.302zm-36.78-13.721v12.656c0 .002-.003.004-.003.004a1.14 1.14 0 01-1.137 1.139 1.14 1.14 0 01-.886-.426L2.278 65.234V77.01c0 .633-.511 1.146-1.14 1.146A1.143 1.143 0 010 77.009V62.402c0-.865 1.101-1.572 1.949-.774l12.225 12.563v-9.362a7.128 7.128 0 00-4.792-1.833c-.63 0-1.14-.514-1.14-1.144 0-.633.51-1.144 1.14-1.144 2.552 0 4.912.993 6.743 2.827.212.208.328.506.328.82z" fill="#231F20"/></svg>